<svg width="61" height="40" viewBox="0 0 61 40" fill="none" xmlns="http://www.w3.org/2000/svg">
<g clip-path="url(#clip0_950_225)">
<path d="M50.8954 15.5997C51.692 14.9336 52.3644 14.3722 53.474 13.9578C53.909 13.7951 54.543 13.6067 55.3376 13.5304C56.1247 13.527 57.6093 14.3946 60.5818 16.1251C60.7086 16.1992 60.9534 16.3462 60.9946 16.5905C61.0425 16.8763 60.7936 17.1886 59.7771 17.963C58.9704 18.5775 58.5671 18.8851 58.186 19.081C57.2579 20.3297 53.7883 19.588 51.3952 18.3033C50.0664 17.5901 49.86 17.1335 49.8641 16.8185C49.8654 16.7082 49.8958 16.4354 50.8947 15.6011L50.8954 15.5997Z" fill="white"/>
<path d="M51.5091 20.6196C55.5089 19.9874 57.6848 22.2915 57.6848 22.2915C58.2277 22.8665 58.6223 24.5506 59.4176 27.9183C59.4513 28.0625 59.514 28.3429 59.3663 28.5409C59.1936 28.7723 58.797 28.8042 57.5418 28.5913C56.5449 28.4218 56.0464 28.3374 55.6438 28.1925C55.6438 28.1925 53.2189 27.3222 51.2926 21.1041C51.215 20.8543 51.2858 20.7495 51.3054 20.7244C51.3054 20.7244 51.3668 20.642 51.5091 20.6196Z" fill="white"/>
<path d="M47.8319 18.5217C50.4934 21.5994 49.7198 24.6847 49.7198 24.6847C49.5269 25.4543 48.3242 26.6894 45.923 29.1622C45.8205 29.2676 45.6182 29.4704 45.3733 29.45C45.0867 29.4255 44.8492 29.1043 44.3589 27.919C43.9697 26.9779 43.7755 26.507 43.6817 26.0858C43.6817 26.0858 43.1192 23.5524 47.3091 18.5938C47.4771 18.3951 47.6025 18.3992 47.6342 18.4026C47.6342 18.4026 47.7361 18.4121 47.8305 18.521L47.8319 18.5217Z" fill="white"/>
<path d="M46.2253 16.8824C44.8398 16.6756 43.1556 18.0059 43.1819 19.03C43.1846 19.1293 43.1961 19.5574 43.5509 19.8132C43.7546 19.9602 44.0311 20.018 44.3569 19.9976C45.2553 19.9411 45.1872 18.6693 46.3379 18.1753C46.9713 17.9031 47.4663 18.0596 47.5493 17.8419C47.6545 17.5656 46.98 16.9954 46.2253 16.8831V16.8824Z" fill="white"/>
<path d="M49.7401 16.0958C49.9606 16.0237 49.8311 15.5167 50.1333 14.8927C50.683 13.7591 51.9382 13.8938 52.0408 12.9915C52.0779 12.6649 52.0347 12.3825 51.8998 12.1702C51.6651 11.7993 51.2422 11.7653 51.1437 11.7578C50.1319 11.6782 48.727 13.3059 48.8598 14.7124C48.932 15.4779 49.4608 16.187 49.7401 16.0958Z" fill="white"/>
<path d="M5.44244 28.9642C4.67757 28.3694 0.0336656 24.6432 -5.91987e-05 18.9851C-0.0209685 15.4596 1.73609 12.6261 2.74109 11.0787C7.50775 3.7419 14.5886 2.41158 18.411 1.69369C24.9873 0.457956 30.1843 1.99309 32.7231 2.94779C36.7734 4.47136 39.6812 6.53862 41.7417 8.28471C44.5429 3.3377 47.707 0 50.469 0C50.9027 0 51.2569 0.477689 51.2569 1.11665C51.2569 3.40234 49.3635 7.8703 46.0491 12.6574C46.1597 12.8037 46.3398 13.0398 46.5624 13.329C47.5397 14.6008 48.4004 16.0441 49.4519 17.2029C49.661 17.4336 50.0596 17.8582 50.2006 18.5693C50.2397 18.7666 50.3456 19.2981 50.1298 19.5846C49.9416 19.8343 49.5598 19.8309 49.2023 19.539C49.0121 19.3593 48.7619 19.0633 48.6149 18.6088C48.457 18.1209 48.5265 17.7861 48.4975 17.3812C48.4806 17.1451 48.4719 16.7974 47.2638 15.0452C46.8875 14.4994 46.3924 13.8094 45.78 13.0276C44.6144 14.6879 43.1919 16.5082 41.4686 18.3761C39.5658 20.4386 37.6907 22.1343 35.9897 23.5088L35.792 24.1464C33.3679 31.3356 30.8783 35.8553 26.9986 38.1518C23.8804 39.9973 20.6692 39.9633 19.1819 39.9973C18.3975 40.015 12.6083 40.0783 8.55794 36.7821C7.29663 35.7552 6.72466 34.8271 6.52298 34.476C5.48426 32.6686 5.42086 30.8096 5.40467 30.1135C5.3932 29.6303 5.41951 29.2316 5.44379 28.9648L5.44244 28.9642ZM32.0978 24.4588C32.0978 24.8854 32.0587 25.2576 31.94 25.5754C32.9659 24.9378 33.9129 24.2465 34.8599 23.5544C35.3543 22.4221 35.8541 21.2878 36.3586 20.1507C38.0792 16.2734 39.7533 12.5989 41.509 8.84473C37.3467 5.79351 31.3505 2.42111 23.7327 2.27957C23.2329 2.27004 22.721 2.27753 22.147 2.29998C18.1243 2.45377 8.83583 3.61941 3.34746 11.8579C0.96919 15.4283 0.842385 18.0181 0.861271 19.1089C0.953002 24.3703 5.02291 27.6876 5.58409 28.1299C6.45149 21.7995 12.9617 16.8539 20.8918 16.8539C26.455 16.8539 32.0965 20.2576 32.0965 24.4588H32.0978ZM5.98878 29.2309C5.97732 29.4071 5.96585 29.6644 5.97192 29.974C5.97192 29.974 6.01779 32.276 7.10305 34.1949C8.84122 37.27 13.6875 37.862 14.5798 37.862C24.3647 37.862 30.5195 31.9051 34.4262 24.4057C33.5574 25.0447 32.6111 25.6823 31.6641 26.2668C31.4274 26.6934 31.1508 26.9057 30.8358 26.9057H30.5991C28.6768 28.2919 23.3597 31.7269 15.9524 31.6071C11.5068 31.5356 8.0325 30.2115 5.98946 29.2302L5.98878 29.2309ZM30.2436 26.6397C30.2045 26.4811 30.1654 26.3219 30.1654 26.0552C30.1654 25.7142 31.3262 24.4982 31.5461 23.9818C32.0459 22.8073 29.8045 20.2759 27.1686 18.8667C24.6129 17.501 22.2124 17.4717 20.8688 17.471C19.1435 17.4697 14.252 17.467 10.2125 21.1837C7.4322 23.7416 6.40967 26.8159 6.01846 28.3694C6.27477 28.4987 6.55671 28.6368 6.86495 28.7784C6.86495 28.7784 7.36273 29.0057 7.8713 29.2071C8.45609 29.4384 10.9639 30.3993 14.3026 30.6517C18.5243 30.9709 21.8839 29.9917 23.813 29.4105C25.481 28.9084 27.7379 28.0727 30.2443 26.6404L30.2436 26.6397ZM36.1623 22.5453C37.7771 21.1837 39.5375 19.5335 41.3209 17.5588C42.9214 15.7862 44.2138 14.1293 45.3294 12.5397C44.8957 11.9912 44.3271 11.3291 43.5946 10.6105C42.9343 9.96342 42.3299 9.4694 41.8443 9.07405C40.8797 10.9453 39.9564 12.8881 39.0222 15.0588C37.8944 17.6786 36.9528 20.1881 36.1623 22.5453ZM42.0932 8.53104C42.6287 9.01621 43.2472 9.58917 43.9258 10.2125C44.6684 10.8943 45.1446 11.4816 45.6983 12.0239C46.7283 10.5697 51.8511 3.24311 50.7604 1.00301C50.7024 0.883929 50.5689 0.60902 50.2761 0.462719C48.9305 -0.211626 46.2238 2.82667 45.3112 3.85077C44.3939 4.88032 43.1602 6.44064 42.0932 8.53104Z" fill="white"/>
</g>
<defs>
<clipPath id="clip0_950_225">
<rect width="61" height="40" fill="white"/>
</clipPath>
</defs>
</svg>
